<svg width="260" height="320" viewBox="0 0 260 320" fill="none" xmlns="http://www.w3.org/2000/svg">
<path d="M182.085 261.987H194.296V265.443H163.48V261.987H175V258.473H165.957V255.075H175V251.734H164.171V248.336H175V243.612H182.085V248.336H193.374V251.734H182.085V255.075H191.243V258.473H182.085V261.987ZM145.854 290.384V247.068H162.558V288.886H156.338V283.587H152.248V290.384H145.854ZM152.248 250.697V263.024H156.338V250.697H152.248ZM152.248 266.652V279.9H156.338V266.652H152.248ZM165.842 296.892V268.15H191.128V290.672C191.128 296.892 185.656 298.678 176.728 294.3L177.304 291.651C183.64 292.515 184.216 292.112 184.216 289.52V285.66H172.754V296.892H165.842ZM184.216 271.664H172.754V275.35H184.216V271.664ZM172.754 282.377H184.216V278.633H172.754V282.377Z" fill="#5E554E"/>
<path d="M100.062 258.934C95.224 253.577 90.9616 249.89 85.3168 245.743L86.872 242.863C93.4384 244.879 100.178 248.335 105.477 252.425L100.062 258.934ZM91.1344 295.222C84.2224 294.703 82.4944 294.07 82.4944 287.1V255.708H90.2128V284.393C90.2128 286.985 90.7312 287.734 93.496 287.964C95.6272 288.137 97.9888 288.194 100.408 287.964C104.037 287.618 104.325 286.639 104.382 277.02H107.608C110.603 288.886 110.661 294.473 101.848 295.222C98.2192 295.51 94.2448 295.452 91.1344 295.222ZM112.85 284.047C110.834 276.905 108.53 270.05 105.534 263.426L108.299 261.871C113.483 267.516 118.034 275.004 120.453 280.649L112.85 284.047ZM74.4304 287.215L67 282.722C71.032 277.884 73.7392 271.836 75.6976 263.196L78.9232 263.714C79.2112 272.47 77.4256 281.34 74.4304 287.215Z" fill="#5E554E"/>
<g filter="url(#filter0_g_58_988)">
<path d="M52.0438 133.774C73.5198 119.098 97.2264 134.046 102.956 152.399C103.355 153.677 105.892 153.855 106.382 152.609C120.697 116.232 153.354 120.692 165.867 133.774C178.896 147.394 175.895 187.121 118.373 223.534C116.929 224.448 115.087 224.686 113.456 224.179C32.7769 199.099 29.7904 148.981 52.0438 133.774Z" fill="#FF9501"/>
</g>
<g filter="url(#filter1_g_58_988)">
<path d="M179.199 162.571C174.059 164.627 175.033 173.677 170.388 181.386C165.742 189.095 166.605 193.226 175.12 192.363C181.956 191.67 189.719 178.989 189.388 170.37C189.199 165.443 185.199 160.171 179.199 162.571Z" fill="#FFD6BC"/>
</g>
<g filter="url(#filter2_g_58_988)">
<path d="M56.1991 205.77C60.3989 197.97 46.4215 194.198 41.4901 183.491C36.5586 172.783 21.4809 176.535 23.561 188.353C26.5772 205.49 51.6978 214.13 56.1991 205.77Z" fill="#FFD6BC"/>
</g>
<g filter="url(#filter3_g_58_988)">
<path d="M165.305 63.1619C153.429 67.0644 147.286 82.5611 148.243 90.434C150.267 117.229 183.762 114.778 191.058 107.352C199.3 98.9611 201.296 85.9523 196.43 75.3556C190.549 62.5504 177.181 59.2593 165.305 63.1619Z" fill="#FFCC01"/>
</g>
<g filter="url(#filter4_g_58_988)">
<path d="M197.285 126.068C198.825 125.456 200.569 126.208 201.181 127.747L205.535 138.702C206.147 140.241 205.395 141.986 203.856 142.598C202.316 143.21 200.572 142.458 199.96 140.919L195.606 129.964C194.994 128.425 195.746 126.68 197.285 126.068ZM213.758 108.449C214.484 106.959 216.279 106.339 217.769 107.065L228.691 112.385C230.18 113.111 230.8 114.906 230.075 116.396C229.349 117.885 227.552 118.505 226.063 117.78L215.141 112.459C213.651 111.734 213.033 109.938 213.758 108.449ZM231.893 72.3673C233.538 72.1673 235.033 73.3387 235.233 74.9832C235.433 76.6279 234.262 78.1234 232.617 78.3234L215.345 80.4239C213.7 80.6238 212.204 79.4527 212.004 77.808C211.805 76.1636 212.976 74.6679 214.62 74.4678L231.893 72.3673ZM127.377 47.1489C128.502 45.9325 130.399 45.8583 131.616 46.9828L141.419 56.0433C142.636 57.1679 142.71 59.0657 141.585 60.2824C140.461 61.499 138.563 61.5741 137.347 60.4496L127.543 51.3891C126.326 50.2645 126.252 48.3656 127.377 47.1489ZM204.134 34.3119C205.092 32.9599 206.965 32.6401 208.317 33.5978C209.669 34.5555 209.989 36.4288 209.031 37.7808L198.831 52.1804C197.874 53.5324 196.001 53.8518 194.649 52.8944C193.297 51.9367 192.978 50.0645 193.935 48.7125L204.134 34.3119ZM160.725 42.7735L159.204 30.2656C159.004 28.621 160.176 27.1256 161.82 26.9254C163.465 26.7254 164.96 27.8965 165.16 29.5413L166.682 42.0491C166.882 43.6939 165.71 45.1893 164.066 45.3894C162.421 45.5891 160.925 44.4181 160.725 42.7735Z" fill="#FFCC01"/>
</g>
<g filter="url(#filter5_g_58_988)">
<path d="M77.6709 27.8672C93.3592 26.5015 97.3715 53.5733 93.3594 71.7822C106.136 69.0375 142.074 82.4232 127.291 122.37C118.658 125.968 110.677 133.036 104.794 144.468C100.619 136.68 93.6841 130.062 85.374 126.323C75.8543 122.04 64.4823 121.526 53.5 127.299C53.0531 126.575 52.6082 125.849 52.167 125.121C37.8394 101.472 53.3613 85.2769 62.9131 80.1357C62.8216 80.0828 20.3793 55.4867 37.0762 41.3633C49.5214 30.8367 67.9168 52.7269 76.7725 67.1104C77.1479 67.7201 78.0564 67.3183 77.8252 66.6406C73.2445 53.2142 64.003 29.0572 77.6709 27.8672Z" fill="#FFD6BC"/>
</g>
<g filter="url(#filter6_g_58_988)">
<ellipse cx="113.483" cy="97.7694" rx="4.23862" ry="4.8" transform="rotate(-13.3 113.483 97.7694)" fill="#6C6560"/>
</g>
<g filter="url(#filter7_g_58_988)">
<ellipse cx="85.6286" cy="102.215" rx="4.23862" ry="4.8" transform="rotate(-13.3 85.6286 102.215)" fill="#6C6560"/>
</g>
<g filter="url(#filter8_g_58_988)">
<path d="M106.463 106.447C105.402 104.25 97.0283 105.699 96.2377 108.089C95.4471 110.48 98.3155 113.066 101.915 112.691C105.515 112.316 107.789 109.194 106.463 106.447Z" fill="#6C6560"/>
</g>
<g filter="url(#filter9_g_58_988)">
<path d="M102.303 110.394C103.283 110.231 104.211 110.893 104.374 111.873L104.862 114.799C106.475 116.034 107.725 116.253 108.577 116.099C109.509 115.929 110.459 115.224 111.189 113.764C111.633 112.875 112.715 112.515 113.604 112.959C114.493 113.404 114.854 114.485 114.409 115.374C113.339 117.515 111.589 119.209 109.221 119.64C107.302 119.989 105.305 119.448 103.364 118.154C101.775 119.52 99.9231 120.261 98.1799 120.412C96.0637 120.596 93.6504 119.898 92.5888 117.774C92.1443 116.885 92.5048 115.804 93.3939 115.359C94.2831 114.915 95.3646 115.275 95.8092 116.164C95.9476 116.441 96.5343 116.942 97.8681 116.826C98.9281 116.734 100.185 116.233 101.277 115.19L100.824 112.466C100.66 111.485 101.322 110.558 102.303 110.394Z" fill="#6C6560"/>
</g>
<g filter="url(#filter10_g_58_988)">
<ellipse cx="122.001" cy="108.052" rx="5.68769" ry="5.52738" transform="rotate(-13.2363 122.001 108.052)" fill="#FFBC92"/>
</g>
<g filter="url(#filter11_g_58_988)">
<ellipse cx="78.7744" cy="115.224" rx="5.68769" ry="5.52738" transform="rotate(12.855 78.7744 115.224)" fill="#FFBC92"/>
</g>
<defs>
<filter id="filter0_g_58_988" x="39.7716" y="123.867" width="132.826" height="100.945" filterUnits="userSpaceOnUse" color-interpolation-filters="sRGB">
<feFlood flood-opacity="0" result="BackgroundImageFix"/>
<feBlend mode="normal" in="SourceGraphic" in2="BackgroundImageFix" result="shape"/>
<feTurbulence type="fractalNoise" baseFrequency="0.26288115978240967 0.26288115978240967" numOctaves="3" seed="2169" />
<feDisplacementMap in="shape" scale="0.74400001764297485" xChannelSelector="R" yChannelSelector="G" result="displacedImage" width="100%" height="100%" />
<feMerge result="effect1_texture_58_988">
<feMergeNode in="displacedImage"/>
</feMerge>
</filter>
<filter id="filter1_g_58_988" x="167.221" y="161.601" width="22.5492" height="31.2469" filterUnits="userSpaceOnUse" color-interpolation-filters="sRGB">
<feFlood flood-opacity="0" result="BackgroundImageFix"/>
<feBlend mode="normal" in="SourceGraphic" in2="BackgroundImageFix" result="shape"/>
<feTurbulence type="fractalNoise" baseFrequency="0.26288115978240967 0.26288115978240967" numOctaves="3" seed="2169" />
<feDisplacementMap in="shape" scale="0.74400001764297485" xChannelSelector="R" yChannelSelector="G" result="displacedImage" width="100%" height="100%" />
<feMerge result="effect1_texture_58_988">
<feMergeNode in="displacedImage"/>
</feMerge>
</filter>
<filter id="filter2_g_58_988" x="22.9932" y="176.799" width="34.3544" height="32.5663" filterUnits="userSpaceOnUse" color-interpolation-filters="sRGB">
<feFlood flood-opacity="0" result="BackgroundImageFix"/>
<feBlend mode="normal" in="SourceGraphic" in2="BackgroundImageFix" result="shape"/>
<feTurbulence type="fractalNoise" baseFrequency="0.26288115978240967 0.26288115978240967" numOctaves="3" seed="2169" />
<feDisplacementMap in="shape" scale="0.74400001764297485" xChannelSelector="R" yChannelSelector="G" result="displacedImage" width="100%" height="100%" />
<feMerge result="effect1_texture_58_988">
<feMergeNode in="displacedImage"/>
</feMerge>
</filter>
<filter id="filter3_g_58_988" x="147.774" y="61.2452" width="51.6439" height="51.4588" filterUnits="userSpaceOnUse" color-interpolation-filters="sRGB">
<feFlood flood-opacity="0" result="BackgroundImageFix"/>
<feBlend mode="normal" in="SourceGraphic" in2="BackgroundImageFix" result="shape"/>
<feTurbulence type="fractalNoise" baseFrequency="0.26288115978240967 0.26288115978240967" numOctaves="3" seed="2169" />
<feDisplacementMap in="shape" scale="0.74400001764297485" xChannelSelector="R" yChannelSelector="G" result="displacedImage" width="100%" height="100%" />
<feMerge result="effect1_texture_58_988">
<feMergeNode in="displacedImage"/>
</feMerge>
</filter>
<filter id="filter4_g_58_988" x="126.208" y="26.5313" width="109.42" height="116.652" filterUnits="userSpaceOnUse" color-interpolation-filters="sRGB">
<feFlood flood-opacity="0" result="BackgroundImageFix"/>
<feBlend mode="normal" in="SourceGraphic" in2="BackgroundImageFix" result="shape"/>
<feTurbulence type="fractalNoise" baseFrequency="0.26288115978240967 0.26288115978240967" numOctaves="3" seed="2169" />
<feDisplacementMap in="shape" scale="0.74400001764297485" xChannelSelector="R" yChannelSelector="G" result="displacedImage" width="100%" height="100%" />
<feMerge result="effect1_texture_58_988">
<feMergeNode in="displacedImage"/>
</feMerge>
</filter>
<filter id="filter5_g_58_988" x="32.8135" y="27.4454" width="98.3563" height="117.394" filterUnits="userSpaceOnUse" color-interpolation-filters="sRGB">
<feFlood flood-opacity="0" result="BackgroundImageFix"/>
<feBlend mode="normal" in="SourceGraphic" in2="BackgroundImageFix" result="shape"/>
<feTurbulence type="fractalNoise" baseFrequency="0.26288115978240967 0.26288115978240967" numOctaves="3" seed="2169" />
<feDisplacementMap in="shape" scale="0.74400001764297485" xChannelSelector="R" yChannelSelector="G" result="displacedImage" width="100%" height="100%" />
<feMerge result="effect1_texture_58_988">
<feMergeNode in="displacedImage"/>
</feMerge>
</filter>
<filter id="filter6_g_58_988" x="108.839" y="92.6241" width="9.28648" height="10.2899" filterUnits="userSpaceOnUse" color-interpolation-filters="sRGB">
<feFlood flood-opacity="0" result="BackgroundImageFix"/>
<feBlend mode="normal" in="SourceGraphic" in2="BackgroundImageFix" result="shape"/>
<feTurbulence type="fractalNoise" baseFrequency="0.26288115978240967 0.26288115978240967" numOctaves="3" seed="2169" />
<feDisplacementMap in="shape" scale="0.74400001764297485" xChannelSelector="R" yChannelSelector="G" result="displacedImage" width="100%" height="100%" />
<feMerge result="effect1_texture_58_988">
<feMergeNode in="displacedImage"/>
</feMerge>
</filter>
<filter id="filter7_g_58_988" x="80.9854" y="97.0694" width="9.28648" height="10.2899" filterUnits="userSpaceOnUse" color-interpolation-filters="sRGB">
<feFlood flood-opacity="0" result="BackgroundImageFix"/>
<feBlend mode="normal" in="SourceGraphic" in2="BackgroundImageFix" result="shape"/>
<feTurbulence type="fractalNoise" baseFrequency="0.26288115978240967 0.26288115978240967" numOctaves="3" seed="2169" />
<feDisplacementMap in="shape" scale="0.74400001764297485" xChannelSelector="R" yChannelSelector="G" result="displacedImage" width="100%" height="100%" />
<feMerge result="effect1_texture_58_988">
<feMergeNode in="displacedImage"/>
</feMerge>
</filter>
<filter id="filter8_g_58_988" x="95.7335" y="104.992" width="11.4833" height="8.10728" filterUnits="userSpaceOnUse" color-interpolation-filters="sRGB">
<feFlood flood-opacity="0" result="BackgroundImageFix"/>
<feBlend mode="normal" in="SourceGraphic" in2="BackgroundImageFix" result="shape"/>
<feTurbulence type="fractalNoise" baseFrequency="0.26288115978240967 0.26288115978240967" numOctaves="3" seed="2169" />
<feDisplacementMap in="shape" scale="0.74400001764297485" xChannelSelector="R" yChannelSelector="G" result="displacedImage" width="100%" height="100%" />
<feMerge result="effect1_texture_58_988">
<feMergeNode in="displacedImage"/>
</feMerge>
</filter>
<filter id="filter9_g_58_988" x="92.0264" y="109.997" width="22.9452" height="10.8153" filterUnits="userSpaceOnUse" color-interpolation-filters="sRGB">
<feFlood flood-opacity="0" result="BackgroundImageFix"/>
<feBlend mode="normal" in="SourceGraphic" in2="BackgroundImageFix" result="shape"/>
<feTurbulence type="fractalNoise" baseFrequency="0.26288115978240967 0.26288115978240967" numOctaves="3" seed="2169" />
<feDisplacementMap in="shape" scale="0.74400001764297485" xChannelSelector="R" yChannelSelector="G" result="displacedImage" width="100%" height="100%" />
<feMerge result="effect1_texture_58_988">
<feMergeNode in="displacedImage"/>
</feMerge>
</filter>
<filter id="filter10_g_58_988" x="115.949" y="102.143" width="12.1053" height="11.8182" filterUnits="userSpaceOnUse" color-interpolation-filters="sRGB">
<feFlood flood-opacity="0" result="BackgroundImageFix"/>
<feBlend mode="normal" in="SourceGraphic" in2="BackgroundImageFix" result="shape"/>
<feTurbulence type="fractalNoise" baseFrequency="0.26288115978240967 0.26288115978240967" numOctaves="3" seed="2169" />
<feDisplacementMap in="shape" scale="0.74400001764297485" xChannelSelector="R" yChannelSelector="G" result="displacedImage" width="100%" height="100%" />
<feMerge result="effect1_texture_58_988">
<feMergeNode in="displacedImage"/>
</feMerge>
</filter>
<filter id="filter11_g_58_988" x="72.7213" y="109.315" width="12.1063" height="11.8182" filterUnits="userSpaceOnUse" color-interpolation-filters="sRGB">
<feFlood flood-opacity="0" result="BackgroundImageFix"/>
<feBlend mode="normal" in="SourceGraphic" in2="BackgroundImageFix" result="shape"/>
<feTurbulence type="fractalNoise" baseFrequency="0.26288115978240967 0.26288115978240967" numOctaves="3" seed="2169" />
<feDisplacementMap in="shape" scale="0.74400001764297485" xChannelSelector="R" yChannelSelector="G" result="displacedImage" width="100%" height="100%" />
<feMerge result="effect1_texture_58_988">
<feMergeNode in="displacedImage"/>
</feMerge>
</filter>
</defs>
</svg>
